_________________________  Visit us at _________________________
  
http://p2pdl.com  ____________________________  http://p2pdl.com


Iron Man Rise Of Technovore 2013 BRRip 720p x264 AAC - PRiSTiNE [P2PDL]

Genre: Animation | Action | Sci-Fi
Plot: Iron Man is framed by a technological terrorist, and breaks 
out to stop him and clear his name.
Director: Hiroshi Hamazaki
Stars: Norman Reedus, Matthew Mercer, Eric Bauza
Rated: Rated PG-13 for some intense sequences of violence and action

Info: 
http://www.imdb.com/title/tt2654124/


General
Complete name                  : Iron Man Rise Of Technovore 2013 BRRip 720p x264 AAC - PRiSTiNE.mp4
Format                         : MPEG-4
Format profile                 : Base Media
File size                      : 505 MiB
Duration                       : 1h 28mn
Overall bit rate mode          : Variable
Overall bit rate               : 801 Kbps

Video
Format                         : AVC
Format/Info                    : Advanced Video Codec
Format profile                 : High 10@L4.1
Bit rate                       : 719 Kbps
Width                          : 1 280 pixels
Height                         : 720 pixels
Display aspect ratio           : 16:9
Frame rate mode                : Constant
Frame rate                     : 23.976 fps
Bit depth                      : 10 bits
Stream size                    : 453 MiB (90%)
Writing library                : x264 core 130 r2273 b3065e6

Audio
Format                         : AAC
Bit rate mode                  : Variable
Bit rate                       : 79.7 Kbps
Channel(s)                     : 2 channels
Channel positions              : Front: L R
Sampling rate                  : 48.0 KHz / 24.0 KHz
Stream size                    : 50.2 MiB (10%)

Subtitle                       : Yes (English)
Source                         : 720p.BluRay.x264-UNTOUCHABLES (Thanks)

Screens:
 
http://www.ultraimg.com/images/z8M9x.jpg 
http://www.ultraimg.com/images/zlmWF.jpg 
http://www.ultraimg.com/images/xXt0C.jpg 
http://www.ultraimg.com/images/gNKc5.jpg 
http://www.ultraimg.com/images/ZUpyD.jpg 
http://www.ultraimg.com/images/ZnGay.jpg

----------------------------------------------------------------------------------------------------


Encoded using revolutionary 10bit encoding, which enables us to provide you more crispier 
and sharper images at small sizes, just make sure you follow our instructions without a fault.
Recommend to you to use latest version of VLC player. Install K-Lite Codec Pack or shark007 codecs
in case of any kind of problem in playback (For non-VLC Media Player users). Alternatively, install
Core AVC codecs, the fastest decoder that there is coupled with Community Center Codec Pack and play
on Windows Media Player Classic. Check sample to be sure.
Enjoy!

Encoder Notes:Looking For Early Access To Anything You Can Provide DVDScr, R5, DVDR, BluRay, Direct
Audio, Music Releases and Seedboxes. We require dedicated servers, so as to do more 
and fast releases of movies.
If You Got anything to offer please contact us at "prg@hush.com".

Face book Fan Page:   
http://www.fb.me/p2pdl